<!DOCTYPE svg PUBLIC "-//W3C//DTD SVG 1.1//EN" "http://www.w3.org/Graphics/SVG/1.1/DTD/svg11.dtd">

<!-- Uploaded to: SVG Repo, www.svgrepo.com, Transformed by: SVG Repo Mixer Tools -->
<svg fill="#04DC55" width="800px" height="800px" viewBox="0 0 256 256" id="Flat" xmlns="http://www.w3.org/2000/svg">

<g id="SVGRepo_bgCarrier" stroke-width="0"/>

<g id="SVGRepo_tracerCarrier" stroke-linecap="round" stroke-linejoin="round"/>

<g id="SVGRepo_iconCarrier"> <path d="M196,208a12.00028,12.00028,0,0,1-12,12H56a12,12,0,0,1,0-24,24.0275,24.0275,0,0,0,24-24V144H56a12,12,0,0,1,0-24H80V84a55.99955,55.99955,0,0,1,95.59766-39.59766A11.99976,11.99976,0,1,1,158.627,61.37207,32,32,0,0,0,104,84v36h32a12,12,0,0,1,0,24H104v28a47.68887,47.68887,0,0,1-6.45752,24H184A12.00028,12.00028,0,0,1,196,208Z"/> </g>

</svg>